<?xml version="1.0" encoding="utf-8"?>
<!-- Generator: Adobe Illustrator 25.0.0, SVG Export Plug-In . SVG Version: 6.00 Build 0)  -->
<svg version="1.1" xmlns="http://www.w3.org/2000/svg" xmlns:xlink="http://www.w3.org/1999/xlink" x="0px" y="0px"
	 viewBox="0 0 500 500" enable-background="new 0 0 500 500" xml:space="preserve">
<g id="Layer_2">
</g>
<g id="Layer_1">
	<path fill="#FFFFFF" stroke="#000000" stroke-miterlimit="10" d="M413.63,179.23c0-75.94-61.56-137.5-137.5-137.5
		c-26.83,0-51.86,7.7-73.02,20.99h-0.61v0.37v45.13v142.03v45.13v82.35H96.12v40h106.38h59.62v-40v-58.73l127.18,97.49l24.33-31.75
		l-96.73-74.15C372.94,293.21,413.63,240.97,413.63,179.23z M262.12,79.81c3.54-0.38,7.14-0.58,10.78-0.58
		c55.23,0,100,44.77,100,100c0,55.23-44.77,100-100,100c-3.64,0-7.24-0.2-10.78-0.58V79.81z"/>
</g>
</svg>
